<svg width="129" height="30" viewBox="0 0 129 30" fill="none" xmlns="http://www.w3.org/2000/svg">
<path fill-rule="evenodd" clip-rule="evenodd" d="M15.105 21.7743C15.1062 21.9897 15.105 22.2046 15.1013 22.4188C14.6278 22.1808 14.1554 21.941 13.684 21.6992C13.15 21.421 12.6312 21.1195 12.1275 20.7946C11.7593 20.5534 11.4078 20.2898 11.0728 20.0035C10.7747 19.7445 10.5018 19.4619 10.2542 19.1557C9.71529 18.4715 9.42965 17.6914 9.39725 16.8154C9.37528 16.1197 9.47903 15.4434 9.70855 14.7865C9.97297 14.1238 10.1683 13.4414 10.2945 12.7393C10.5291 11.3845 10.49 10.038 10.1773 8.69971C10.105 8.39542 10.0152 8.09634 9.90812 7.80243C10.123 7.80243 10.3378 7.80243 10.5527 7.80243C10.6508 8.25077 10.7454 8.69999 10.8365 9.15017C10.9128 9.53399 10.9665 9.92099 10.9977 10.3111C11.0448 11.1558 10.9874 11.9933 10.8255 12.8235C10.7489 13.206 10.656 13.5844 10.5472 13.9588C10.3917 14.4698 10.2378 14.9813 10.0858 15.4933C10.0561 15.5967 10.0281 15.7005 10.0015 15.8046C9.99143 15.8483 9.98414 15.8922 9.97952 15.9365C11.6886 14.2774 13.3965 12.6172 15.1032 10.9557C15.1056 11.8163 15.1056 12.677 15.1032 13.5376C13.5018 15.0492 11.9007 16.5611 10.3 18.0735C10.2876 18.0808 10.2821 18.0911 10.2835 18.1046C10.4419 18.4372 10.6421 18.7412 10.8841 19.0165C11.0804 19.2409 11.2922 19.449 11.5195 19.6409C11.92 19.973 12.3424 20.2745 12.7867 20.5455C13.2702 20.8404 13.767 21.1139 14.2773 21.3659C14.436 21.4379 14.5947 21.5099 14.7534 21.582C14.8748 21.6395 14.992 21.7036 15.105 21.7743Z" fill="#B60005"/>
<path d="M4.5 7.79999H10.555L10.7213 11.755L4.5 7.79999Z" fill="#B60005"/>
<path fill-rule="evenodd" clip-rule="evenodd" d="M15.1036 21.7743C15.1024 21.9898 15.1036 22.2046 15.1073 22.4188C15.5808 22.1808 16.0532 21.941 16.5246 21.6992C17.0586 21.421 17.5774 21.1195 18.081 20.7946C18.4493 20.5534 18.8008 20.2898 19.1358 20.0035C19.4339 19.7445 19.7067 19.4619 19.9543 19.1557C20.4933 18.4715 20.7789 17.6914 20.8113 16.8154C20.8333 16.1197 20.7295 15.4434 20.5 14.7865C20.2356 14.1238 20.0403 13.4414 19.914 12.7393C19.6795 11.3845 19.7186 10.038 20.0313 8.69971C20.1036 8.39542 20.1933 8.09634 20.3004 7.80243C20.0856 7.80243 19.8708 7.80243 19.6559 7.80243C19.5578 8.25077 19.4632 8.69999 19.372 9.15017C19.2958 9.53399 19.2421 9.92099 19.2109 10.3111C19.1638 11.1558 19.2212 11.9933 19.383 12.8235C19.4597 13.206 19.5525 13.5844 19.6614 13.9588C19.8169 14.4698 19.9707 14.9813 20.1228 15.4933C20.1524 15.5967 20.1805 15.7005 20.207 15.8046C20.2171 15.8483 20.2244 15.8922 20.229 15.9365C18.52 14.2774 16.812 12.6172 15.1054 10.9557C15.103 11.8163 15.103 12.677 15.1054 13.5376C16.7068 15.0492 18.3079 16.5611 19.9086 18.0735C19.921 18.0808 19.9265 18.0911 19.925 18.1046C19.7667 18.4372 19.5665 18.7412 19.3244 19.0165C19.1281 19.2409 18.9163 19.449 18.689 19.6409C18.2886 19.973 17.8662 20.2745 17.4218 20.5455C16.9384 20.8404 16.4416 21.1139 15.9313 21.3659C15.7726 21.4379 15.6138 21.5099 15.4552 21.582C15.3337 21.6395 15.2166 21.7036 15.1036 21.7743Z" fill="#B2B9BC"/>
<path d="M25.7086 7.79999H19.6536L19.4873 11.755L25.7086 7.79999Z" fill="#B2B9BC"/>
<path d="M30.1406 11.4688C30.1406 10.8594 29.9531 10.6562 29.4531 10.5V10.3594H31.9531C32.0312 10.3594 32.125 10.3906 32.125 10.4688V20.8125H35.5625C36.8906 20.8125 37.3906 20.5312 37.7656 20H37.9844V21.5C37.9844 21.625 37.9375 21.6875 37.7344 21.6875H30.1406V11.4688Z" fill="#B60005"/>
<path d="M39.7344 15.2031C39.7344 14.6094 39.5469 14.3906 39.0469 14.25V14.1094H41.5469C41.625 14.1094 41.7188 14.1406 41.7188 14.2188V20.6406C41.7188 21.0156 41.5938 21.4688 41.2656 21.6875H39.7344V15.2031ZM39.3594 11.25C39.3594 10.5938 39.8906 10.0938 40.5938 10.0938C41.3281 10.0938 41.8125 10.5938 41.8125 11.25C41.8125 11.875 41.3281 12.4062 40.5938 12.4062C39.8906 12.4062 39.3594 11.875 39.3594 11.25Z" fill="#B60005"/>
<path d="M48.2656 15.0469C48.6875 14.625 48.9531 14.3281 48.5312 14.1875V14.0312H50.5625C50.625 14.0312 50.6719 14.1094 50.6406 14.1719C50.4844 14.4062 50.1562 14.7344 49.7812 15.1094L47.8906 16.9844L50.9375 21.0938C51.1094 21.3281 51.0781 21.5312 51.0156 21.6875H49.2656L46.7812 18.0781L45.625 19.2344V20.6406C45.625 21 45.4844 21.4688 45.1562 21.6875H43.6406V11.4688C43.6406 10.8594 43.4375 10.6562 42.9375 10.5V10.3594H45.4375C45.5156 10.3594 45.625 10.3906 45.625 10.4688V17.7188L48.2656 15.0469Z" fill="#B60005"/>
<path d="M53.9375 18.2344C54.0469 20.0312 54.875 20.9688 56.3125 20.9688C57.2344 20.9688 58.2656 20.4219 58.7969 19.7344L59.2656 20.1094C58.8125 21.0156 57.6562 21.8438 55.9844 21.8438C53.875 21.8438 51.9688 20.4531 51.9688 17.8125C51.9688 15.1719 53.75 13.8594 55.7812 13.8594C57.8125 13.8594 59.4062 15.1719 59.4062 17.8125C59.4062 17.9375 59.3906 18.0469 59.3594 18.2344H53.9375ZM53.9375 17.3594H57.5C57.5 15.7188 56.8281 14.7344 55.7812 14.7344C54.5938 14.7344 54.0156 15.7188 53.9375 17.3594Z" fill="#B60005"/>
<path d="M61.1406 11.4688C61.1406 10.8594 60.9531 10.6562 60.4531 10.5V10.3594H62.9531C63.0312 10.3594 63.125 10.3906 63.125 10.4688V20.8125H66.5625C67.8906 20.8125 68.3906 20.5312 68.7656 20H68.9844V21.5C68.9844 21.625 68.9375 21.6875 68.7344 21.6875H61.1406V11.4688Z" fill="#B60005"/>
<path d="M70.7344 15.2031C70.7344 14.6094 70.5469 14.3906 70.0469 14.25V14.1094H72.5469C72.625 14.1094 72.7188 14.1406 72.7188 14.2188V20.6406C72.7188 21.0156 72.5938 21.4688 72.2656 21.6875H70.7344V15.2031ZM70.3594 11.25C70.3594 10.5938 70.8906 10.0938 71.5938 10.0938C72.3281 10.0938 72.8125 10.5938 72.8125 11.25C72.8125 11.875 72.3281 12.4062 71.5938 12.4062C70.8906 12.4062 70.3594 11.875 70.3594 11.25Z" fill="#B60005"/>
<path d="M78.1875 21.8438C76.1562 21.8438 74.1719 20.4844 74.1719 17.8438C74.1719 15.2031 76.1562 13.8594 78.1875 13.8594C80.2188 13.8594 82.1875 15.2031 82.1875 17.8438C82.1875 20.4844 80.2188 21.8438 78.1875 21.8438ZM76.1562 17.8438C76.1562 19.9219 77.0469 20.9688 78.1875 20.9688C79.3281 20.9688 80.2031 19.9219 80.2031 17.8438C80.2031 15.7812 79.3281 14.7344 78.1875 14.7344C77.0469 14.7344 76.1562 15.7812 76.1562 17.8438Z" fill="#B60005"/>
<path d="M83.8438 15.1406C83.8438 14.5312 83.6406 14.3281 83.1406 14.1719V14.0312H85.6406C85.7188 14.0312 85.8125 14.0625 85.8125 14.1406V15.1875C86.6562 13.9062 88.0312 13.8125 88.8438 13.8906C90.5 14.0312 91.4219 15.125 91.4219 16.8281V20.625C91.4219 21 91.2969 21.4531 90.9688 21.6875H89.4375V16.8281C89.4375 15.7188 89.0938 15.1406 88.5625 14.9375C87.7812 14.6406 86.4688 14.9375 85.8125 16.9062V20.625C85.8125 21 85.6875 21.4531 85.3594 21.6875H83.8438V15.1406Z" fill="#B60005"/>
<path d="M100.734 21.6875H97.1875V11.4688C97.1875 10.8594 96.9844 10.6562 96.4844 10.5V10.3594H100.734C103.406 10.3594 104.875 11.375 104.875 13.2344C104.875 14.2969 104.312 15.2188 103.25 15.75C104.609 16.2188 105.453 17.1406 105.453 18.5312C105.453 20.6562 103.5 21.6875 100.734 21.6875ZM99.1719 20.8125H100.734C102.469 20.8125 103.469 20.0781 103.469 18.5312C103.469 17 102.469 16.2812 100.734 16.2812H99.1719V20.8125ZM99.1719 15.3906H100.734C102.359 15.3906 102.891 14.375 102.891 13.2344C102.891 12.2812 102.359 11.2344 100.734 11.2344H99.1719V15.3906Z" fill="#B60005"/>
<path d="M107.047 11.4531C107.047 10.8594 106.844 10.6406 106.344 10.5V10.3594H108.844C108.922 10.3594 109.016 10.3906 109.016 10.4688V20.0469C109.016 21.0469 109.109 21.2344 109.703 21.2344V21.7812C107.797 22.1094 107.047 21.4688 107.047 20.0469V11.4531Z" fill="#B60005"/>
<path d="M114.484 21.8438C112.453 21.8438 110.469 20.4844 110.469 17.8438C110.469 15.2031 112.453 13.8594 114.484 13.8594C116.516 13.8594 118.484 15.2031 118.484 17.8438C118.484 20.4844 116.516 21.8438 114.484 21.8438ZM112.453 17.8438C112.453 19.9219 113.344 20.9688 114.484 20.9688C115.625 20.9688 116.5 19.9219 116.5 17.8438C116.5 15.7812 115.625 14.7344 114.484 14.7344C113.344 14.7344 112.453 15.7812 112.453 17.8438Z" fill="#B60005"/>
<path d="M128.188 15.2188C127.766 14.7031 127.141 14.5156 126.75 15.1094C127.047 15.5156 127.234 16.0312 127.234 16.6406C127.234 18.5312 125.422 19.4844 123.562 19.4844C123.188 19.4844 122.812 19.4531 122.438 19.375C121.797 19.8906 121.812 20.0156 121.906 20.125C122.281 20.5781 122.781 20.6406 124.688 20.6406C126.844 20.6406 128.062 20.9688 128 22.5781C127.906 24.3906 125.781 25.4062 123.688 25.4062C122.078 25.4062 119.609 24.8906 119.609 23.1094C119.609 22.5625 120.094 22.2031 120.734 21.7656C120.922 21.625 121.109 21.5156 121.344 21.3281C120.609 21.1094 120.312 20.6562 120.172 20.2656C120.109 20.0781 120.406 19.9219 120.719 19.75C121 19.6094 121.328 19.4531 121.625 19.1094C120.609 18.6719 119.875 17.8594 119.875 16.6406C119.875 14.7031 121.688 13.7969 123.562 13.7969C124.578 13.7969 125.562 14.0625 126.266 14.6094C126.703 13.8125 127.641 13.625 128.375 13.9219C128.578 14.0469 128.594 14.2344 128.594 14.3438L128.188 15.2188ZM121.594 22.9375C121.594 23.9375 122.5 24.5312 123.641 24.5312C124.984 24.5312 126.016 24.0156 126.016 22.7812C126.016 21.8906 125.078 21.6875 123.875 21.6875H122.609C121.812 22.1875 121.594 22.5625 121.594 22.9375ZM121.812 16.6406C121.812 17.9688 122.562 18.625 123.562 18.625C124.547 18.625 125.281 17.9688 125.281 16.6406C125.281 15.2969 124.547 14.6562 123.562 14.6562C122.562 14.6562 121.812 15.2969 121.812 16.6406Z" fill="#B60005"/>
</svg>
