<svg width="30" height="30" viewBox="0 0 30 30" fill="none" xmlns="http://www.w3.org/2000/svg">
<path fill-rule="evenodd" clip-rule="evenodd" d="M15.105 21.7743C15.1062 21.9897 15.105 22.2046 15.1013 22.4188C14.6278 22.1808 14.1554 21.941 13.684 21.6992C13.15 21.421 12.6312 21.1195 12.1275 20.7946C11.7593 20.5534 11.4078 20.2898 11.0728 20.0035C10.7747 19.7445 10.5018 19.4619 10.2542 19.1557C9.71529 18.4715 9.42965 17.6914 9.39725 16.8154C9.37528 16.1197 9.47903 15.4434 9.70855 14.7865C9.97297 14.1238 10.1683 13.4414 10.2945 12.7393C10.5291 11.3845 10.49 10.038 10.1773 8.69971C10.105 8.39542 10.0152 8.09634 9.90812 7.80243C10.123 7.80243 10.3378 7.80243 10.5527 7.80243C10.6508 8.25077 10.7454 8.69999 10.8365 9.15017C10.9128 9.53399 10.9665 9.92099 10.9977 10.3111C11.0448 11.1558 10.9874 11.9933 10.8255 12.8235C10.7489 13.206 10.656 13.5844 10.5472 13.9588C10.3917 14.4698 10.2378 14.9813 10.0858 15.4933C10.0561 15.5967 10.0281 15.7005 10.0015 15.8046C9.99143 15.8483 9.98414 15.8922 9.97952 15.9365C11.6886 14.2774 13.3965 12.6172 15.1032 10.9557C15.1056 11.8163 15.1056 12.677 15.1032 13.5376C13.5018 15.0492 11.9007 16.5611 10.3 18.0735C10.2876 18.0808 10.2821 18.0911 10.2835 18.1046C10.4419 18.4372 10.6421 18.7412 10.8841 19.0165C11.0804 19.2409 11.2922 19.449 11.5195 19.6409C11.92 19.973 12.3424 20.2745 12.7867 20.5455C13.2702 20.8404 13.767 21.1139 14.2773 21.3659C14.436 21.4379 14.5947 21.5099 14.7534 21.582C14.8748 21.6395 14.992 21.7036 15.105 21.7743Z" fill="#B60005"/>
<path d="M4.5 7.79999H10.555L10.7213 11.755L4.5 7.79999Z" fill="#B60005"/>
<path fill-rule="evenodd" clip-rule="evenodd" d="M15.1036 21.7743C15.1024 21.9898 15.1036 22.2046 15.1073 22.4188C15.5808 22.1808 16.0532 21.941 16.5246 21.6992C17.0586 21.421 17.5774 21.1195 18.081 20.7946C18.4493 20.5534 18.8008 20.2898 19.1358 20.0035C19.4339 19.7445 19.7067 19.4619 19.9543 19.1557C20.4933 18.4715 20.7789 17.6914 20.8113 16.8154C20.8333 16.1197 20.7295 15.4434 20.5 14.7865C20.2356 14.1238 20.0403 13.4414 19.914 12.7393C19.6795 11.3845 19.7186 10.038 20.0313 8.69971C20.1036 8.39542 20.1933 8.09634 20.3004 7.80243C20.0856 7.80243 19.8708 7.80243 19.6559 7.80243C19.5578 8.25077 19.4632 8.69999 19.372 9.15017C19.2958 9.53399 19.2421 9.92099 19.2109 10.3111C19.1638 11.1558 19.2212 11.9933 19.383 12.8235C19.4597 13.206 19.5525 13.5844 19.6614 13.9588C19.8169 14.4698 19.9707 14.9813 20.1228 15.4933C20.1524 15.5967 20.1805 15.7005 20.207 15.8046C20.2171 15.8483 20.2244 15.8922 20.229 15.9365C18.52 14.2774 16.812 12.6172 15.1054 10.9557C15.103 11.8163 15.103 12.677 15.1054 13.5376C16.7068 15.0492 18.3079 16.5611 19.9086 18.0735C19.921 18.0808 19.9265 18.0911 19.925 18.1046C19.7667 18.4372 19.5665 18.7412 19.3244 19.0165C19.1281 19.2409 18.9163 19.449 18.689 19.6409C18.2886 19.973 17.8662 20.2745 17.4218 20.5455C16.9384 20.8404 16.4416 21.1139 15.9313 21.3659C15.7726 21.4379 15.6138 21.5099 15.4552 21.582C15.3337 21.6395 15.2166 21.7036 15.1036 21.7743Z" fill="#B2B9BC"/>
<path d="M25.7086 7.79999H19.6536L19.4873 11.755L25.7086 7.79999Z" fill="#B2B9BC"/>
</svg>
